<svg width="42" height="45" viewBox="0 0 42 45" fill="none" xmlns="http://www.w3.org/2000/svg">
<path d="M0.594 4.3H6.138V5.686H4.092V12H2.64V5.686H0.594V4.3ZM37.8014 8.106H41.1014V12H39.7814V11.142H39.5834C39.4954 11.428 39.3267 11.67 39.0774 11.868C38.8281 12.0587 38.4541 12.154 37.9554 12.154C37.6034 12.154 37.2734 12.088 36.9654 11.956C36.6574 11.824 36.3897 11.6297 36.1624 11.373C35.9351 11.109 35.7554 10.7863 35.6234 10.405C35.4914 10.0163 35.4254 9.56533 35.4254 9.052V7.248C35.4254 6.74933 35.4951 6.30933 35.6344 5.928C35.7811 5.53933 35.9791 5.213 36.2284 4.949C36.4851 4.685 36.7894 4.487 37.1414 4.355C37.4934 4.21567 37.8821 4.146 38.3074 4.146C38.7474 4.146 39.1397 4.21933 39.4844 4.366C39.8291 4.50533 40.1224 4.70333 40.3644 4.96C40.6064 5.20933 40.7897 5.50633 40.9144 5.851C41.0391 6.18833 41.1014 6.55133 41.1014 6.94V7.072H39.6494V6.94C39.6494 6.478 39.5284 6.12967 39.2864 5.895C39.0517 5.653 38.7181 5.532 38.2854 5.532C37.8747 5.532 37.5374 5.67133 37.2734 5.95C37.0094 6.22133 36.8774 6.69067 36.8774 7.358V8.986C36.8774 10.174 37.3614 10.768 38.3294 10.768C38.7621 10.768 39.0884 10.6543 39.3084 10.427C39.5357 10.1923 39.6494 9.88067 39.6494 9.492H37.8014V8.106ZM0.902 34.3H2.354V40.614H5.852V42H0.902V34.3ZM37.2404 42H35.7884V34.3H37.2404V37.457H37.5594L39.5944 34.3H41.2334V34.366L38.8574 38.051V38.249L41.3654 41.934V42H39.6604L37.5594 38.843H37.2404V42Z" fill="white"/>
<circle cx="21" cy="23" r="10.5" stroke="white"/>
</svg>
