<svg width="42" height="45" viewBox="0 0 42 45" fill="none" xmlns="http://www.w3.org/2000/svg">
<path d="M2.64 12V5.686H0.594V4.3H6.138V5.686H4.092V12H2.64ZM37.9554 12.154C37.4861 12.154 37.0607 12.0403 36.6794 11.813C36.2981 11.5783 35.9937 11.23 35.7664 10.768C35.5391 10.306 35.4254 9.734 35.4254 9.052V7.248C35.4254 6.58067 35.5464 6.016 35.7884 5.554C36.0377 5.092 36.3787 4.74367 36.8114 4.509C37.2441 4.267 37.7427 4.146 38.3074 4.146C38.8941 4.146 39.3964 4.27067 39.8144 4.52C40.2324 4.76933 40.5514 5.10667 40.7714 5.532C40.9914 5.95 41.1014 6.41933 41.1014 6.94V7.072H39.6494V6.94C39.6494 6.478 39.5284 6.12967 39.2864 5.895C39.0517 5.653 38.7181 5.532 38.2854 5.532C37.8821 5.532 37.5447 5.66767 37.2734 5.939C37.0094 6.21033 36.8774 6.68333 36.8774 7.358V8.986C36.8774 10.174 37.3614 10.768 38.3294 10.768C38.7621 10.768 39.0884 10.6507 39.3084 10.416C39.5357 10.1813 39.6494 9.87333 39.6494 9.492H37.8014V8.106H41.1014V12H39.7814V11.142H39.5834C39.4954 11.428 39.3267 11.67 39.0774 11.868C38.8281 12.0587 38.4541 12.154 37.9554 12.154ZM0.902 42V34.3H2.354V40.614H5.852V42H0.902ZM35.7884 42V34.3H37.2404V37.457H37.5594L39.5944 34.3H41.2334V34.366L38.8574 38.051V38.249L41.3654 41.934V42H39.6604L37.5594 38.843H37.2404V42H35.7884Z" fill="#060606"/>
<circle cx="21" cy="23" r="10.5" fill="white" stroke="black"/>
</svg>
